<svg width="82" height="82" viewBox="0 0 82 82" fill="none" xmlns="http://www.w3.org/2000/svg">
<path d="M6.724 62.4185V63.9765H1.558V65.0097H6.724V69.1425H0V67.5845H5.166V66.5513H0V62.4185H6.724Z" fill="white"/>
<path d="M14.0876 62.4185V69.1425H12.546V62.4185H14.0876ZM14.5304 65.7805L17.3348 62.4185H19.2864L16.6296 65.7805L19.2864 69.1425H17.3348L14.5304 65.7805Z" fill="white"/>
<path d="M27.4044 66.5676H24.8132V62.4348H26.3712V65.026H29.9956V62.4348H31.5536V66.5676H28.9624V69.1588H27.4044V66.5676Z" fill="white"/>
<path d="M44.0996 67.6008V69.1588H37.3756V62.4348H38.9336V67.6172H44.0996V67.6008Z" fill="white"/>
<path d="M52.4964 66.5676H49.9052V62.4348H51.4632V65.026H55.0876V62.4348H56.6456V66.5676H54.0544V69.1588H52.4964V66.5676Z" fill="white"/>
<path d="M64.0092 64.7309V69.1425H62.4512V62.4185H64.124L67.6172 66.8301V62.4185H69.1752V69.1425H67.5024L64.0092 64.7309Z" fill="white"/>
<path d="M77.3916 65.7805L74.7184 62.4185H76.67L78.3592 64.5505L80.0484 62.4185H82L79.3268 65.7805L82 69.1425H80.0484L78.3592 67.0105L76.67 69.1425H74.7184L77.3916 65.7805Z" fill="white"/>
<path d="M23.8292 77.933V74.407H22.5172V73.9314H25.6824V74.407H24.354V77.933H23.8292Z" fill="#26B0E5"/>
<path d="M27.8964 77.933V73.9478H30.7828V74.4234H28.4212V75.6534H30.6352V76.129H28.4212V77.4902H30.8648V77.9658H27.8964V77.933Z" fill="#26B0E5"/>
<path d="M36.1292 76.5389L36.654 76.6701C36.5392 77.0965 36.3424 77.4409 36.0636 77.6541C35.7684 77.8837 35.424 77.9985 35.014 77.9985C34.5876 77.9985 34.2268 77.9165 33.9644 77.7361C33.702 77.5557 33.4888 77.3097 33.3412 76.9817C33.1936 76.6537 33.128 76.2929 33.128 75.9157C33.128 75.5057 33.21 75.1449 33.374 74.8333C33.538 74.5217 33.7512 74.2921 34.0464 74.1281C34.3416 73.9641 34.6696 73.8821 35.014 73.8821C35.4076 73.8821 35.752 73.9805 36.0144 74.1937C36.2932 74.3905 36.4736 74.6857 36.5884 75.0465L36.0636 75.1777C35.9652 74.8825 35.834 74.6693 35.6536 74.5381C35.4732 74.4069 35.26 74.3413 34.9812 74.3413C34.6696 74.3413 34.4236 74.4069 34.2104 74.5545C33.9972 74.7021 33.866 74.8989 33.7676 75.1449C33.6856 75.3909 33.6364 75.6533 33.6364 75.9157C33.6364 76.2601 33.6856 76.5553 33.784 76.8013C33.8824 77.0473 34.03 77.2441 34.2432 77.3753C34.4564 77.5065 34.686 77.5721 34.9156 77.5721C35.2108 77.5721 35.4568 77.4901 35.67 77.3097C35.916 77.1129 36.0472 76.8669 36.1292 76.5389Z" fill="#26B0E5"/>
<path d="M38.9992 77.933V73.9478H39.524V75.5878H41.6068V73.9478H42.1316V77.933H41.6068V76.047H39.524V77.933H38.9992Z" fill="#26B0E5"/>
<path d="M47.9864 77.933V73.9478H48.5112V77.933H47.9864Z" fill="#26B0E5"/>
<path d="M51.1188 77.933V73.9478H51.66L53.7592 77.0802V73.9478H54.2676V77.933H53.7264L51.6272 74.8006V77.933H51.1188Z" fill="#26B0E5"/>
<path d="M59.6796 76.5389L60.2044 76.6701C60.0896 77.0965 59.8928 77.4409 59.614 77.6541C59.3188 77.8837 58.9744 77.9985 58.5644 77.9985C58.138 77.9985 57.7772 77.9165 57.5148 77.7361C57.2524 77.5557 57.0392 77.3097 56.8916 76.9817C56.744 76.6537 56.6784 76.2929 56.6784 75.9157C56.6784 75.5057 56.7604 75.1449 56.9244 74.8333C57.0884 74.5217 57.3016 74.2921 57.5968 74.1281C57.892 73.9641 58.22 73.8821 58.5644 73.8821C58.958 73.8821 59.3024 73.9805 59.5648 74.1937C59.8436 74.3905 60.024 74.6857 60.1388 75.0465L59.614 75.1777C59.5156 74.8825 59.3844 74.6693 59.204 74.5381C59.0236 74.4069 58.8104 74.3413 58.548 74.3413C58.2364 74.3413 57.9904 74.4069 57.7772 74.5545C57.564 74.7021 57.4328 74.8989 57.3508 75.1449C57.2688 75.3909 57.2196 75.6533 57.2196 75.9157C57.2196 76.2601 57.2688 76.5553 57.3672 76.8013C57.4656 77.0473 57.6132 77.2441 57.8264 77.3753C58.0396 77.5065 58.2692 77.5721 58.4988 77.5721C58.794 77.5721 59.04 77.4901 59.2532 77.3097C59.4664 77.1129 59.5976 76.8669 59.6796 76.5389Z" fill="#26B0E5"/>
<path d="M50.7416 40.426C50.7416 40.426 48.4456 40.4588 47.1172 38.7696C45.7888 37.0804 44.608 36.7524 44.608 36.7524C45.7888 37.8348 45.9692 39.0156 46.5432 39.8356C47.1172 40.6556 48.2324 40.8196 48.2324 40.8196L47.9372 40.426C49.282 41.328 50.7416 40.426 50.7416 40.426Z" fill="white"/>
<path d="M50.9712 45.4936C46.412 41.6888 44.854 38.048 44.2144 36.7524C44.2144 36.7524 46.986 48.544 52.48 48.6916C55.186 48.5112 55.9732 46.8548 55.9732 46.8548C55.9732 46.8548 53.0868 47.0844 50.9712 45.4936Z" fill="white"/>
<path d="M48.8228 48.6916C45.1328 44.6572 44.4276 39.1304 44.4276 39.1304C44.4276 39.1304 44.0668 51.168 50.3972 52.07C52.6932 51.8896 53.2344 51.25 53.2344 51.25C53.2344 51.25 50.3152 50.6432 48.8228 48.6916Z" fill="white"/>
<path d="M37.9332 37.2607C36.1292 38.1627 34.3744 39.0647 30.8484 38.0807C30.8812 38.0971 30.996 38.2447 31.0288 38.2775C31.1928 38.4415 31.3896 38.5727 31.57 38.7039C32.3244 39.2287 33.1936 39.6059 34.0956 39.7699C34.8336 39.9011 35.588 39.8847 36.326 39.6715C36.7852 39.5403 37.2936 39.3435 37.6872 39.0811C37.9824 38.8843 38.1956 38.6219 38.458 38.3759C39.8356 37.1295 41.8692 36.3259 41.8692 36.3259C41.8692 36.3259 39.7208 36.3751 37.9332 37.2607Z" fill="white"/>
<path d="M35.7356 40.426C35.834 40.426 35.998 40.5572 36.0964 40.59C36.244 40.6392 36.3916 40.6884 36.5556 40.7048C37.7364 40.918 39.196 40.918 39.9504 39.8356C40.5244 39.0156 40.7048 37.8348 41.8856 36.7524C41.8856 36.7524 40.7048 37.0804 39.3764 38.7696C38.0316 40.4588 35.7356 40.426 35.7356 40.426Z" fill="white"/>
<path d="M42.2792 36.7688C41.6396 38.0644 40.0816 41.6888 35.5224 45.51C33.4068 47.0844 30.5204 46.8712 30.5204 46.8712C30.5204 46.8712 31.3076 48.5276 34.0136 48.708C39.5076 48.5604 42.2792 36.7688 42.2792 36.7688Z" fill="white"/>
<path d="M42.066 39.1304C42.066 39.1304 41.3444 44.6736 37.6708 48.6916C36.1784 50.6268 33.2592 51.25 33.2592 51.25C33.2592 51.25 33.8004 51.8896 36.0964 52.07C42.4268 51.1844 42.066 39.1304 42.066 39.1304Z" fill="white"/>
<path d="M35.752 27.8308C37.4248 29.028 42.1152 32.5212 43.3124 35.4076C44.2308 32.5868 48.6424 29.7496 49.1672 29.274C49.692 28.7984 57.318 23.7144 58.8432 21.1232C60.3684 18.532 61.2868 17.056 61.2868 14.842C60.2864 16.4328 59.5156 17.138 59.5156 17.138C59.5156 17.138 61.4344 14.596 60.9588 12.0048C60.4832 9.41357 59.286 8.69197 59.286 8.69197C59.286 8.69197 60.1388 11.1028 59.04 14.35C59.1876 12.5788 59.4172 5.67437 51.5124 2.36157C56.8424 6.31397 56.0716 12.4804 56.0716 12.4804C56.0716 12.4804 56.4488 19.4832 49.7904 24.6984C49.7904 24.6984 48.0684 26.0924 46.3956 24.1736C47.8388 23.0256 49.3476 24.4688 49.364 24.4688C49.3476 24.4524 49.3804 24.2064 49.364 24.19C49.3312 23.9276 49.1836 23.698 49.0196 23.5176C48.6916 23.1404 48.2488 22.8944 47.7896 22.7304C47.4616 22.6156 47.1664 22.55 46.8876 22.3368C46.6088 22.1236 46.412 21.9432 46.7236 21.7464C46.9368 21.6152 47.3304 21.5496 47.5928 21.4512C48.3964 21.1396 49.2656 20.6804 49.8888 20.0736C50.2332 19.7292 50.5284 19.352 50.6432 18.8764C49.8232 19.4996 48.0684 21.1068 44.6572 20.4016C44.6572 20.4016 42.0332 19.106 40.8524 19.106C39.6716 19.106 39.0156 19.8932 39.0156 20.4016C39.0156 20.91 36.9328 19.6964 36.244 21.484C37.2444 20.9756 38.048 21.0084 38.7532 21.7628C39.4748 22.5172 40.3768 23.0584 39.4748 25.7808C34.5548 24.0916 32.8984 20.3524 32.8984 20.3524C32.8984 20.3524 26.4532 9.24957 35.0304 2.36157C30.7664 5.54317 29.028 6.49437 27.88 10.086C27.5356 11.5456 27.5028 14.0876 27.5028 14.0876C27.5028 14.0876 26.5024 12.6772 27.2076 8.83957C26.486 10.1352 25.2888 12.4312 25.2888 14.7272C25.2888 17.0232 27.0108 20.4836 28.8312 22.304C30.668 24.1408 33.6364 26.6336 35.752 27.8308ZM58.8596 15.3504C58.1872 18.0564 56.4652 20.7296 53.8412 21.8612C56.252 20.3852 57.8264 17.9252 58.8596 15.3504ZM40.5244 19.8276L41.9184 19.8768L40.5244 20.3852V19.8276ZM33.3576 24.4688C32.9804 24.2064 32.5868 23.944 32.226 23.6652C29.7168 21.648 27.8308 18.6304 27.6176 15.3668C28.2572 19.0076 30.5204 22.1564 33.3576 24.4688Z" fill="white"/>
<path d="M21.5824 18.4335C21.73 21.0247 21.5496 24.6163 26.2892 27.4207C31.0288 30.2251 33.9808 30.5859 33.9808 30.5859C33.9808 30.5859 38.4088 31.5863 40.1308 32.6687C40.1308 32.6687 39.3108 31.2255 31.2584 26.1907C20.4672 19.0075 24.682 11.0535 24.682 11.0535C24.682 11.0535 22.0252 15.4323 22.2712 17.2035C22.304 19.7127 23.6652 21.8611 23.6652 21.8611C23.6652 21.8611 22.222 21.0903 21.5824 18.4335ZM31.4388 28.1259C31.0616 28.0111 30.668 27.8635 30.2908 27.7323C27.6996 26.6663 25.1248 24.9279 24.0096 22.2711C25.6496 25.0919 28.5524 26.8303 31.4388 28.1259Z" fill="white"/>
<path d="M55.2352 26.1907C47.1828 31.2255 46.3628 32.6687 46.3628 32.6687C48.0848 31.5863 52.5128 30.5859 52.5128 30.5859C52.5128 30.5859 55.4648 30.2251 60.2044 27.4207C64.944 24.6163 64.7636 21.0247 64.9112 18.4335C64.2716 21.0903 62.8284 21.8611 62.8284 21.8611C62.8284 21.8611 64.1896 19.7291 64.2224 17.2035C64.4684 15.4487 61.8116 11.0535 61.8116 11.0535C61.8116 11.0535 66.0264 19.0075 55.2352 26.1907ZM53.9396 28.9131C53.4804 29.0607 53.0212 29.1755 52.5456 29.2903C56.1208 28.0439 59.5648 26.0923 61.9756 23.1075C60.1388 25.9447 57.1048 27.8635 53.9396 28.9131Z" fill="white"/>
<path d="M29.0444 36.2931C28.4704 36.1783 30.5532 37.2607 32.7836 37.2607C35.014 37.2607 38.6056 35.9323 39.032 35.9323C39.4584 35.9323 41.1476 35.6371 41.8692 35.8175C41.8692 35.8175 41.328 34.8171 33.7512 35.1779C28.0276 35.2435 25.1904 32.3079 25.1904 32.3079C25.1904 32.3079 26.9616 36.0143 30.8484 36.2931C30.3072 36.4735 29.6184 36.4079 29.0444 36.2931ZM36.1456 35.7519C34.8336 36.5555 33.1772 36.6047 31.7012 36.3259C33.21 36.2275 34.686 36.1947 36.1456 35.7519Z" fill="white"/>
<path d="M44.608 35.8341C45.3296 35.6537 47.0188 35.9489 47.4452 35.9489C47.8716 35.9489 51.4796 37.2773 53.6936 37.2773C55.924 37.2773 58.0068 36.1949 57.4328 36.3097C56.8588 36.4245 56.17 36.4901 55.6288 36.3097C59.5156 36.0145 61.2868 32.3245 61.2868 32.3245C61.2868 32.3245 58.4332 35.2765 52.726 35.1945C45.1492 34.8173 44.608 35.8341 44.608 35.8341ZM50.1184 36.0637C51.5288 36.1293 52.89 36.2933 54.3168 36.3753C52.9228 36.6705 51.4632 36.4901 50.1184 36.0637Z" fill="white"/>
<path d="M41.5576 34.9976C41.5576 34.9976 39.1796 32.7344 32.6032 31.734C24.2228 30.1104 21.812 25.092 21.812 25.092C21.812 25.092 22.3532 29.4052 26.9124 31.0616C25.994 31.0288 24.682 30.6352 24.682 30.6352C24.682 30.6352 26.6664 32.8984 31.0452 33.6528C35.4568 34.3908 38.1792 33.6364 41.5576 34.9976ZM32.964 32.9968C31.1272 33.1116 29.3232 32.4228 27.7324 31.57C29.2576 32.0128 31.3896 32.7672 32.964 32.9968Z" fill="white"/>
<path d="M53.874 31.7341C47.2976 32.7345 44.9196 34.9977 44.9196 34.9977C48.298 33.6365 51.0368 34.3909 55.4156 33.6365C59.7944 32.8821 61.7788 30.6189 61.7788 30.6189C61.7788 30.6189 60.4668 31.0125 59.5484 31.0453C64.1076 29.3889 64.6488 25.0757 64.6488 25.0757C64.6488 25.0757 62.2544 30.1105 53.874 31.7341ZM52.0536 33.1937C54.202 32.6525 56.3176 32.2097 58.4332 31.5537C56.4652 32.5705 54.2512 33.0461 52.0536 33.1937Z" fill="white"/>
<path d="M55.6452 38.0971C52.1192 39.0647 50.3644 38.1627 48.5604 37.2771C46.7564 36.3751 44.608 36.3423 44.608 36.3423C44.608 36.3423 46.6416 37.1459 48.0192 38.3923C49.446 40.1799 52.398 39.8355 52.398 39.8355C52.398 39.8355 51.6436 39.6387 51.496 39.3271C53.874 39.6387 54.9236 38.6383 55.6452 38.0971ZM48.0848 37.8019C48.9212 38.1955 50.102 38.6875 50.9056 39.1303C49.8724 38.9991 48.8228 38.5563 48.0848 37.8019Z" fill="white"/>
<path d="M41.5084 50.3807C41.5084 52.2503 43.2468 57.9247 43.2468 57.9247C43.2468 57.9247 44.9196 52.2831 44.9196 50.2823C44.9196 48.1175 43.2632 36.9163 43.2632 36.9163C43.2632 36.9163 41.5084 48.5111 41.5084 50.3807ZM43.296 54.1855C43.0992 50.9875 43.1156 47.7731 43.296 44.5587C43.4764 47.7731 43.4928 50.9711 43.296 54.1855Z" fill="white"/>
</svg>
