<?xml version="1.0" encoding="utf-8"?>
<!-- Generator: Adobe Illustrator 26.1.0, SVG Export Plug-In . SVG Version: 6.00 Build 0)  -->
<svg version="1.1" id="Layer_1" xmlns="http://www.w3.org/2000/svg" xmlns:xlink="http://www.w3.org/1999/xlink" x="0px" y="0px"
	 viewBox="0 0 82 82" style="enable-background:new 0 0 82 82;" xml:space="preserve">
<style type="text/css">
	.st0{fill:#2D2D2D;}
</style>
<path class="st0" d="M6.7,62.4V64H1.6v1h5.2v4.1H0v-1.6h5.2v-1H0v-4.1H6.7z"/>
<path class="st0" d="M14.1,62.4v6.7h-1.5v-6.7H14.1z M14.5,65.8l2.8-3.4h2l-2.7,3.4l2.7,3.4h-2L14.5,65.8z"/>
<path class="st0" d="M27.4,66.6h-2.6v-4.1h1.6V65H30v-2.6h1.6v4.1H29v2.6h-1.6V66.6z"/>
<path class="st0" d="M44.1,67.6v1.6h-6.7v-6.7h1.6v5.2L44.1,67.6L44.1,67.6z"/>
<path class="st0" d="M52.5,66.6h-2.6v-4.1h1.6V65h3.6v-2.6h1.6v4.1h-2.6v2.6h-1.6V66.6z"/>
<path class="st0" d="M64,64.7v4.4h-1.6v-6.7h1.7l3.5,4.4v-4.4h1.6v6.7h-1.7L64,64.7z"/>
<path class="st0" d="M77.4,65.8l-2.7-3.4h2l1.7,2.1l1.7-2.1h2l-2.7,3.4l2.7,3.4h-2L78.4,67l-1.7,2.1h-2L77.4,65.8z"/>
<path class="st0" d="M23.8,77.9v-3.5h-1.3v-0.5h3.2v0.5h-1.3v3.5H23.8z"/>
<path class="st0" d="M27.9,77.9v-4h2.9v0.5h-2.4v1.2h2.2v0.5h-2.2v1.4h2.4V78L27.9,77.9L27.9,77.9z"/>
<path class="st0" d="M36.1,76.5l0.5,0.1c-0.1,0.4-0.3,0.8-0.6,1c-0.3,0.2-0.6,0.3-1,0.3c-0.4,0-0.8-0.1-1-0.3
	c-0.3-0.2-0.5-0.4-0.6-0.8c-0.1-0.3-0.2-0.7-0.2-1.1c0-0.4,0.1-0.8,0.2-1.1c0.2-0.3,0.4-0.5,0.7-0.7c0.3-0.2,0.6-0.2,1-0.2
	c0.4,0,0.7,0.1,1,0.3c0.3,0.2,0.5,0.5,0.6,0.9l-0.5,0.1c-0.1-0.3-0.2-0.5-0.4-0.6c-0.2-0.1-0.4-0.2-0.7-0.2c-0.3,0-0.6,0.1-0.8,0.2
	c-0.2,0.1-0.3,0.3-0.4,0.6c-0.1,0.2-0.1,0.5-0.1,0.8c0,0.3,0,0.6,0.1,0.9s0.2,0.4,0.5,0.6c0.2,0.1,0.4,0.2,0.7,0.2
	c0.3,0,0.5-0.1,0.8-0.3C35.9,77.1,36,76.9,36.1,76.5z"/>
<path class="st0" d="M39,77.9v-4h0.5v1.6h2.1v-1.6h0.5v4h-0.5V76h-2.1v1.9H39z"/>
<path class="st0" d="M48,77.9v-4h0.5v4H48z"/>
<path class="st0" d="M51.1,77.9v-4h0.5l2.1,3.1v-3.1h0.5v4h-0.5l-2.1-3.1v3.1H51.1z"/>
<path class="st0" d="M59.7,76.5l0.5,0.1c-0.1,0.4-0.3,0.8-0.6,1c-0.3,0.2-0.6,0.3-1,0.3c-0.4,0-0.8-0.1-1-0.3
	c-0.3-0.2-0.5-0.4-0.6-0.8c-0.1-0.3-0.2-0.7-0.2-1.1c0-0.4,0.1-0.8,0.2-1.1s0.4-0.5,0.7-0.7c0.3-0.2,0.6-0.2,1-0.2
	c0.4,0,0.7,0.1,1,0.3c0.3,0.2,0.5,0.5,0.6,0.9l-0.5,0.1c-0.1-0.3-0.2-0.5-0.4-0.6c-0.2-0.1-0.4-0.2-0.7-0.2c-0.3,0-0.6,0.1-0.8,0.2
	c-0.2,0.1-0.3,0.3-0.4,0.6c-0.1,0.2-0.1,0.5-0.1,0.8c0,0.3,0,0.6,0.1,0.9s0.2,0.4,0.5,0.6c0.2,0.1,0.4,0.2,0.7,0.2
	c0.3,0,0.5-0.1,0.8-0.3C59.5,77.1,59.6,76.9,59.7,76.5z"/>
<path class="st0" d="M50.7,40.4c0,0-2.3,0-3.6-1.7s-2.5-2-2.5-2c1.2,1.1,1.4,2.3,1.9,3.1c0.6,0.8,1.7,1,1.7,1l-0.3-0.4
	C49.3,41.3,50.7,40.4,50.7,40.4z"/>
<path class="st0" d="M51,45.5c-4.6-3.8-6.1-7.4-6.8-8.7c0,0,2.8,11.8,8.3,11.9c2.7-0.2,3.5-1.8,3.5-1.8S53.1,47.1,51,45.5z"/>
<path class="st0" d="M48.8,48.7c-3.7-4-4.4-9.6-4.4-9.6s-0.4,12,6,12.9c2.3-0.2,2.8-0.8,2.8-0.8S50.3,50.6,48.8,48.7z"/>
<path class="st0" d="M37.9,37.3c-1.8,0.9-3.6,1.8-7.1,0.8c0,0,0.1,0.2,0.2,0.2c0.2,0.2,0.4,0.3,0.5,0.4c0.8,0.5,1.6,0.9,2.5,1.1
	c0.7,0.1,1.5,0.1,2.2-0.1c0.5-0.1,1-0.3,1.4-0.6c0.3-0.2,0.5-0.5,0.8-0.7c1.4-1.2,3.4-2,3.4-2S39.7,36.4,37.9,37.3z"/>
<path class="st0" d="M35.7,40.4c0.1,0,0.3,0.1,0.4,0.2c0.1,0,0.3,0.1,0.5,0.1c1.2,0.2,2.6,0.2,3.4-0.9c0.6-0.8,0.8-2,1.9-3.1
	c0,0-1.2,0.3-2.5,2C38,40.5,35.7,40.4,35.7,40.4z"/>
<path class="st0" d="M42.3,36.8c-0.6,1.3-2.2,4.9-6.8,8.7c-2.1,1.6-5,1.4-5,1.4s0.8,1.7,3.5,1.8C39.5,48.6,42.3,36.8,42.3,36.8z"/>
<path class="st0" d="M42.1,39.1c0,0-0.7,5.5-4.4,9.6c-1.5,1.9-4.4,2.6-4.4,2.6s0.5,0.6,2.8,0.8C42.4,51.2,42.1,39.1,42.1,39.1z"/>
<path class="st0" d="M35.8,27.8c1.7,1.2,6.4,4.7,7.6,7.6c0.9-2.8,5.3-5.7,5.9-6.1c0.5-0.5,8.2-5.6,9.7-8.2s2.4-4.1,2.4-6.3
	c-1,1.6-1.8,2.3-1.8,2.3s1.9-2.5,1.4-5.1c-0.5-2.6-1.7-3.3-1.7-3.3s0.9,2.4-0.2,5.7c0.1-1.8,0.4-8.7-7.5-12c5.3,4,4.6,10.1,4.6,10.1
	s0.4,7-6.3,12.2c0,0-1.7,1.4-3.4-0.5c1.4-1.1,3,0.3,3,0.3c0,0,0-0.3,0-0.3c0-0.3-0.2-0.5-0.3-0.7c-0.3-0.4-0.8-0.6-1.2-0.8
	c-0.3-0.1-0.6-0.2-0.9-0.4s-0.5-0.4-0.2-0.6c0.2-0.1,0.6-0.2,0.9-0.3c0.8-0.3,1.7-0.8,2.3-1.4c0.3-0.3,0.6-0.7,0.8-1.2
	c-0.8,0.6-2.6,2.2-6,1.5c0,0-2.6-1.3-3.8-1.3c-1.2,0-1.8,0.8-1.8,1.3s-2.1-0.7-2.8,1.1c1-0.5,1.8-0.5,2.5,0.3c0.7,0.8,1.6,1.3,0.7,4
	c-4.9-1.7-6.6-5.4-6.6-5.4S26.5,9.2,35,2.4c-4.3,3.2-6,4.1-7.2,7.7c-0.3,1.5-0.4,4-0.4,4s-1-1.4-0.3-5.2c-0.7,1.3-1.9,3.6-1.9,5.9
	s1.7,5.8,3.5,7.6C30.7,24.1,33.6,26.6,35.8,27.8z M58.9,15.4c-0.7,2.7-2.4,5.4-5,6.5C56.3,20.4,57.8,17.9,58.9,15.4z M40.5,19.8
	l1.4,0l-1.4,0.5V19.8z M33.4,24.5c-0.4-0.3-0.8-0.5-1.1-0.8c-2.5-2-4.4-5-4.6-8.3C28.3,19,30.5,22.2,33.4,24.5z"/>
<path class="st0" d="M21.6,18.4c0.1,2.6,0,6.2,4.7,9s7.7,3.2,7.7,3.2s4.4,1,6.1,2.1c0,0-0.8-1.4-8.9-6.5
	c-10.8-7.2-6.6-15.1-6.6-15.1s-2.7,4.4-2.4,6.2c0,2.5,1.4,4.7,1.4,4.7S22.2,21.1,21.6,18.4z M31.4,28.1c-0.4-0.1-0.8-0.3-1.1-0.4
	c-2.6-1.1-5.2-2.8-6.3-5.5C25.6,25.1,28.6,26.8,31.4,28.1z"/>
<path class="st0" d="M55.2,26.2c-8.1,5-8.9,6.5-8.9,6.5c1.7-1.1,6.1-2.1,6.1-2.1s3-0.4,7.7-3.2s4.6-6.4,4.7-9
	c-0.6,2.7-2.1,3.4-2.1,3.4s1.4-2.1,1.4-4.7c0.2-1.8-2.4-6.2-2.4-6.2S66,19,55.2,26.2z M53.9,28.9c-0.5,0.1-0.9,0.3-1.4,0.4
	c3.6-1.2,7-3.2,9.4-6.2C60.1,25.9,57.1,27.9,53.9,28.9z"/>
<path class="st0" d="M29,36.3c-0.6-0.1,1.5,1,3.7,1s5.8-1.3,6.2-1.3c0.4,0,2.1-0.3,2.8-0.1c0,0-0.5-1-8.1-0.6
	c-5.7,0.1-8.6-2.9-8.6-2.9s1.8,3.7,5.7,4C30.3,36.5,29.6,36.4,29,36.3z M36.1,35.8c-1.3,0.8-3,0.9-4.4,0.6
	C33.2,36.2,34.7,36.2,36.1,35.8z"/>
<path class="st0" d="M44.6,35.8c0.7-0.2,2.4,0.1,2.8,0.1c0.4,0,4,1.3,6.2,1.3c2.2,0,4.3-1.1,3.7-1s-1.3,0.2-1.8,0
	c3.9-0.3,5.7-4,5.7-4s-2.9,3-8.6,2.9C45.1,34.8,44.6,35.8,44.6,35.8z M50.1,36.1c1.4,0.1,2.8,0.2,4.2,0.3
	C52.9,36.7,51.5,36.5,50.1,36.1z"/>
<path class="st0" d="M41.6,35c0,0-2.4-2.3-9-3.3c-8.4-1.6-10.8-6.6-10.8-6.6s0.5,4.3,5.1,6c-0.9,0-2.2-0.4-2.2-0.4s2,2.3,6.4,3
	C35.5,34.4,38.2,33.6,41.6,35z M33,33c-1.8,0.1-3.6-0.6-5.2-1.4C29.3,32,31.4,32.8,33,33z"/>
<path class="st0" d="M53.9,31.7c-6.6,1-9,3.3-9,3.3c3.4-1.4,6.1-0.6,10.5-1.4c4.4-0.8,6.4-3,6.4-3S60.5,31,59.5,31
	c4.6-1.7,5.1-6,5.1-6S62.3,30.1,53.9,31.7z M52.1,33.2c2.1-0.5,4.3-1,6.4-1.6C56.5,32.6,54.3,33,52.1,33.2z"/>
<path class="st0" d="M55.6,38.1c-3.5,1-5.3,0.1-7.1-0.8c-1.8-0.9-4-0.9-4-0.9s2,0.8,3.4,2c1.4,1.8,4.4,1.4,4.4,1.4s-0.8-0.2-0.9-0.5
	C53.9,39.6,54.9,38.6,55.6,38.1z M48.1,37.8c0.8,0.4,2,0.9,2.8,1.3C49.9,39,48.8,38.6,48.1,37.8z"/>
<path class="st0" d="M41.5,50.4c0,1.9,1.7,7.5,1.7,7.5s1.7-5.6,1.7-7.6c0-2.2-1.7-13.4-1.7-13.4S41.5,48.5,41.5,50.4z M43.3,54.2
	c-0.2-3.2-0.2-6.4,0-9.6C43.5,47.8,43.5,51,43.3,54.2z"/>
</svg>
