<?xml version="1.0" encoding="utf-8"?>
<!-- Generator: Adobe Illustrator 26.1.0, SVG Export Plug-In . SVG Version: 6.00 Build 0)  -->
<svg version="1.1" id="Layer_1" xmlns="http://www.w3.org/2000/svg" xmlns:xlink="http://www.w3.org/1999/xlink" x="0px" y="0px"
	 viewBox="0 0 16 16" style="enable-background:new 0 0 16 16;" xml:space="preserve">
<style type="text/css">
	.st0{fill:#FFFFFF;}
</style>
<g>
	<path class="st0" d="M10.2,10.88c0,0-0.66,0.01-1.04-0.47C8.78,9.92,8.44,9.83,8.44,9.83c0.34,0.31,0.39,0.65,0.55,0.88
		c0.16,0.23,0.48,0.28,0.48,0.28l-0.08-0.11C9.78,11.14,10.2,10.88,10.2,10.88z"/>
	<path class="st0" d="M10.26,12.33c-1.3-1.09-1.75-2.13-1.93-2.5c0,0,0.79,3.37,2.36,3.41c0.77-0.05,1-0.52,1-0.52
		S10.87,12.78,10.26,12.33z"/>
	<path class="st0" d="M9.65,13.24c-1.05-1.15-1.26-2.73-1.26-2.73s-0.1,3.44,1.71,3.7c0.66-0.05,0.81-0.23,0.81-0.23
		S10.07,13.8,9.65,13.24z"/>
	<path class="st0" d="M6.69,10.29c0.39-0.36,0.97-0.59,0.97-0.59S7.05,9.72,6.54,9.97c-0.52,0.26-1.02,0.52-2.02,0.23
		c0.01,0,0.04,0.05,0.05,0.06c0.05,0.05,0.1,0.08,0.15,0.12c0.22,0.15,0.46,0.26,0.72,0.3c0.21,0.04,0.43,0.03,0.64-0.03
		c0.13-0.04,0.28-0.09,0.39-0.17C6.55,10.44,6.61,10.36,6.69,10.29z"/>
	<path class="st0" d="M6.14,10.96c0.34,0.06,0.75,0.06,0.97-0.25c0.16-0.23,0.22-0.57,0.55-0.88c0,0-0.34,0.09-0.72,0.58
		c-0.38,0.48-1.04,0.47-1.04,0.47c0.03,0,0.07,0.04,0.1,0.05C6.05,10.94,6.09,10.95,6.14,10.96z"/>
	<path class="st0" d="M7.78,9.83c-0.18,0.37-0.63,1.41-1.93,2.5c-0.6,0.45-1.43,0.39-1.43,0.39s0.22,0.47,1,0.52
		C6.98,13.2,7.78,9.83,7.78,9.83z"/>
	<path class="st0" d="M7.72,10.51c0,0-0.21,1.58-1.26,2.73c-0.43,0.55-1.26,0.73-1.26,0.73s0.15,0.18,0.81,0.23
		C7.82,13.95,7.72,10.51,7.72,10.51z"/>
	<path class="st0" d="M5.91,7.28c0.48,0.34,1.82,1.34,2.16,2.17C8.33,8.64,9.6,7.83,9.75,7.69c0.15-0.14,2.33-1.59,2.77-2.33
		c0.44-0.74,0.7-1.16,0.7-1.8c-0.29,0.45-0.51,0.66-0.51,0.66s0.55-0.73,0.41-1.47c-0.14-0.74-0.48-0.95-0.48-0.95
		s0.24,0.69-0.07,1.62c0.04-0.51,0.11-2.48-2.15-3.43c1.52,1.13,1.3,2.89,1.3,2.89s0.11,2-1.8,3.49c0,0-0.49,0.4-0.97-0.15
		C9.37,5.91,9.8,6.32,9.8,6.32c0,0,0-0.07,0-0.08C9.79,6.16,9.75,6.1,9.7,6.05C9.61,5.94,9.48,5.87,9.35,5.82
		C9.26,5.79,9.17,5.77,9.09,5.71S8.96,5.6,9.05,5.54C9.11,5.5,9.22,5.48,9.3,5.46c0.23-0.09,0.48-0.22,0.66-0.39
		c0.1-0.1,0.18-0.21,0.22-0.34C9.93,4.9,9.43,5.36,8.46,5.16c0,0-0.75-0.37-1.09-0.37c-0.34,0-0.52,0.22-0.52,0.37
		c0,0.15-0.6-0.2-0.79,0.31c0.29-0.15,0.52-0.14,0.72,0.08c0.21,0.22,0.46,0.37,0.21,1.15C5.57,6.21,5.1,5.14,5.1,5.14
		S3.25,1.97,5.71,0C4.49,0.91,3.99,1.18,3.66,2.21c-0.1,0.42-0.11,1.14-0.11,1.14s-0.29-0.4-0.08-1.5C3.26,2.22,2.92,2.88,2.92,3.53
		S3.41,5.18,3.93,5.7C4.46,6.22,5.31,6.94,5.91,7.28z M12.52,3.71c-0.19,0.77-0.68,1.54-1.43,1.86C11.77,5.15,12.22,4.45,12.52,3.71
		z M7.28,4.99l0.4,0.01l-0.4,0.15V4.99z M5.23,6.32C5.12,6.24,5.01,6.17,4.9,6.09C4.19,5.51,3.65,4.65,3.59,3.72
		C3.77,4.76,4.42,5.66,5.23,6.32z"/>
	<path class="st0" d="M1.86,4.59C1.9,5.33,1.85,6.36,3.21,7.16c1.35,0.8,2.2,0.9,2.2,0.9s1.27,0.29,1.76,0.6
		c0,0-0.23-0.41-2.54-1.85C1.54,4.76,2.75,2.48,2.75,2.48S1.99,3.74,2.06,4.24c0.01,0.72,0.4,1.33,0.4,1.33S2.05,5.35,1.86,4.59z
		 M4.68,7.36C4.57,7.33,4.46,7.29,4.35,7.25c-0.74-0.3-1.48-0.8-1.8-1.56C3.02,6.5,3.85,6.99,4.68,7.36z"/>
	<path class="st0" d="M11.48,6.81c-2.3,1.44-2.54,1.85-2.54,1.85c0.49-0.31,1.76-0.6,1.76-0.6s0.84-0.1,2.2-0.9
		c1.35-0.8,1.3-1.83,1.35-2.57c-0.18,0.76-0.6,0.98-0.6,0.98s0.39-0.61,0.4-1.33c0.07-0.5-0.69-1.76-0.69-1.76
		S14.56,4.76,11.48,6.81z M11.11,7.59c-0.13,0.04-0.26,0.07-0.4,0.11c1.02-0.36,2.01-0.91,2.69-1.77
		C12.88,6.74,12.01,7.29,11.11,7.59z"/>
	<path class="st0" d="M6.85,9.59c0.12,0,0.6-0.08,0.81-0.03c0,0-0.15-0.29-2.32-0.18C3.7,9.4,2.89,8.56,2.89,8.56S3.4,9.62,4.51,9.7
		c-0.15,0.05-0.35,0.03-0.52,0C3.83,9.66,4.43,9.97,5.06,9.97C5.7,9.97,6.73,9.59,6.85,9.59z M6.02,9.54
		C5.65,9.77,5.18,9.79,4.75,9.71C5.19,9.68,5.61,9.67,6.02,9.54z"/>
	<path class="st0" d="M8.44,9.57C8.65,9.51,9.13,9.6,9.25,9.6c0.12,0,1.15,0.38,1.79,0.38c0.64,0,1.23-0.31,1.07-0.28
		c-0.16,0.03-0.36,0.05-0.52,0c1.11-0.08,1.62-1.14,1.62-1.14s-0.82,0.84-2.45,0.82C8.6,9.28,8.44,9.57,8.44,9.57z M10.02,9.63
		c0.4,0.02,0.79,0.07,1.2,0.09C10.82,9.8,10.4,9.75,10.02,9.63z"/>
	<path class="st0" d="M7.57,9.33c0,0-0.68-0.65-2.56-0.93C2.62,7.93,1.93,6.5,1.93,6.5S2.08,7.73,3.39,8.2
		C3.12,8.19,2.75,8.08,2.75,8.08s0.57,0.65,1.82,0.86C5.83,9.15,6.61,8.94,7.57,9.33z M5.11,8.75c-0.52,0.03-1.04-0.16-1.5-0.41
		C4.06,8.47,4.66,8.69,5.11,8.75z"/>
	<path class="st0" d="M11.09,8.39C9.21,8.68,8.53,9.33,8.53,9.33c0.97-0.39,1.75-0.17,3-0.39s1.82-0.86,1.82-0.86
		s-0.37,0.11-0.64,0.12c1.3-0.47,1.46-1.71,1.46-1.71S13.49,7.93,11.09,8.39z M10.57,8.81c0.61-0.15,1.22-0.28,1.82-0.47
		C11.83,8.63,11.2,8.77,10.57,8.81z"/>
	<path class="st0" d="M11.6,10.21c-1.01,0.28-1.51,0.02-2.02-0.23C9.06,9.72,8.44,9.71,8.44,9.71s0.58,0.23,0.97,0.59
		c0.41,0.51,1.25,0.41,1.25,0.41s-0.22-0.06-0.26-0.15C11.09,10.65,11.39,10.37,11.6,10.21z M9.44,10.13
		c0.24,0.11,0.58,0.25,0.81,0.38C9.95,10.47,9.65,10.34,9.44,10.13z"/>
	<path class="st0" d="M7.56,13.72c0,0.53,0.5,2.16,0.5,2.16s0.48-1.61,0.48-2.18c0-0.62-0.47-3.82-0.47-3.82S7.56,13.19,7.56,13.72z
		 M8.07,14.81c-0.06-0.91-0.05-1.83,0-2.75C8.12,12.98,8.12,13.89,8.07,14.81z"/>
</g>
</svg>
