<svg width="50" height="50" viewBox="0 0 50 50" fill="none" xmlns="http://www.w3.org/2000/svg">
<path d="M45.82 8.72998H4.18C1.87 8.72998 0 10.6 0 12.91V37.09C0 39.39 1.87 41.27 4.18 41.27H45.82C48.12 41.27 50 39.4 50 37.09V12.91C50 10.6 48.13 8.72998 45.82 8.72998ZM44.54 11.36L25 25.11L5.46 11.36H44.54ZM2.63 37.06V12.91C2.63 12.81 2.64 12.71 2.66 12.61L17.01 22.71L2.63 37.06ZM4.78 38.64L19.19 24.24L24.24 27.79C24.47 27.95 24.73 28.03 25 28.03C25.27 28.03 25.53 27.95 25.76 27.79L30.81 24.24L45.22 38.64H4.78ZM47.37 37.06L32.99 22.7L47.34 12.6C47.36 12.7 47.37 12.8 47.37 12.9V37.06Z" fill="#7D8D96"/>
</svg>
