<svg width="50" height="50" viewBox="0 0 50 50" fill="none" xmlns="http://www.w3.org/2000/svg">
<path d="M24.67 0C20.03 0 15.58 1.84 12.3 5.13C9.02 8.41 7.17 12.86 7.17 17.5C7.17 22.66 12.02 30.16 16.47 35.97C11.47 37.22 8.42 39.72 8.42 42.49C8.42 46.76 15.41 49.99 24.67 49.99C33.93 49.99 40.92 46.76 40.92 42.49C40.92 39.68 37.88 37.25 32.87 35.97C37.32 30.16 42.17 22.66 42.17 17.5C42.17 12.86 40.33 8.41 37.04 5.13C33.77 1.84 29.31 0 24.67 0ZM24.67 2.5C28.65 2.5 32.46 4.08 35.28 6.89C38.09 9.7 39.67 13.52 39.67 17.5C39.67 22.5 34.14 30.39 29.67 36.06C27.63 38.56 25.79 40.71 24.75 41.87C23.7 40.71 21.86 38.61 19.83 36.06C15.2 30.39 9.67 22.5 9.67 17.5C9.67 13.52 11.25 9.71 14.06 6.89C16.88 4.08 20.69 2.5 24.67 2.5ZM38.42 42.5C38.42 44.86 32.55 47.5 24.67 47.5C16.79 47.5 10.92 44.86 10.92 42.5C10.92 41.05 13.42 39.15 18.18 38.15C21.09 41.76 23.5 44.34 23.76 44.61C24 44.86 24.33 45.01 24.67 45.01C25.01 45.01 25.35 44.87 25.58 44.61C25.83 44.34 28.24 41.76 31.16 38.15C35.92 39.15 38.42 41.05 38.42 42.5Z" fill="#7D8D96"/>
<path d="M24.67 25C26.66 25 28.57 24.21 29.97 22.8C31.38 21.39 32.17 19.49 32.17 17.5C32.17 15.51 31.38 13.6 29.97 12.2C28.56 10.79 26.66 10 24.67 10C22.68 10 20.77 10.79 19.37 12.2C17.96 13.61 17.17 15.51 17.17 17.5C17.17 19.49 17.96 21.4 19.37 22.8C20.77 24.21 22.68 25 24.67 25ZM24.67 12.5C26 12.5 27.27 13.03 28.21 13.96C29.15 14.9 29.67 16.17 29.67 17.5C29.67 18.83 29.14 20.1 28.21 21.04C27.27 21.98 26 22.5 24.67 22.5C23.34 22.5 22.07 21.97 21.13 21.04C20.19 20.1 19.67 18.83 19.67 17.5C19.67 16.17 20.2 14.9 21.13 13.96C22.07 13.03 23.35 12.5 24.67 12.5Z" fill="#7D8D96"/>
</svg>
