<svg width="70" height="70" viewBox="0 0 70 70" fill="none" xmlns="http://www.w3.org/2000/svg">
<g clip-path="url(#clip0_15_161)">
<path d="M37.688 5.502C44.814 6.146 51.184 9.31 55.958 14.056C60.732 18.83 63.868 25.228 64.512 32.326H70V37.702H64.498C63.854 44.828 60.718 51.198 55.944 55.972C51.17 60.746 44.8 63.882 37.674 64.526V70H32.298V64.498C25.2 63.854 18.802 60.718 14.028 55.944C9.282 51.17 6.118 44.8 5.474 37.674H0V32.298H5.502C6.146 25.2 9.31 18.802 14.056 14.028C18.83 9.282 25.228 6.118 32.326 5.474V0H37.702L37.688 5.502ZM35.014 26.922C39.466 26.922 43.064 30.534 43.064 35C43.064 39.452 39.452 43.05 35.014 43.05C30.534 43.05 26.936 39.438 26.936 35C26.936 30.534 30.534 26.922 35.014 26.922ZM37.688 10.906V16.17H32.312V10.906C26.698 11.55 21.672 14.07 17.864 17.85C14.084 21.658 11.55 26.684 10.92 32.298H16.184V37.674H10.906C11.55 43.288 14.07 48.342 17.85 52.122C21.658 55.902 26.684 58.464 32.298 59.066V53.83H37.674V59.066C43.288 58.45 48.342 55.902 52.122 52.122C55.902 48.342 58.464 43.288 59.066 37.674H53.83V32.298H59.066C58.45 26.684 55.902 21.658 52.122 17.85C48.356 14.07 43.302 11.55 37.688 10.906Z" fill="black"/>
</g>
<defs>
<clipPath id="clip0_15_161">
<rect width="70" height="70" fill="white"/>
</clipPath>
</defs>
</svg>
