<svg width="50" height="50" viewBox="0 0 50 50" fill="none" xmlns="http://www.w3.org/2000/svg">
<path d="M12.78 0C10.95 0 9.45 1.51 9.45 3.33V46.66C9.45 48.49 10.96 49.99 12.78 49.99H37.22C39.05 49.99 40.55 48.48 40.55 46.66V3.33C40.55 1.5 39.04 0 37.22 0H12.78ZM12.78 2.22H37.22C37.85 2.22 38.33 2.7 38.33 3.33V4.44H11.67V3.33C11.67 2.7 12.14 2.22 12.78 2.22ZM11.67 6.67H38.34V41.11H11.67V6.67ZM11.67 43.33H38.34V46.66C38.34 47.29 37.86 47.77 37.23 47.77H12.78C12.15 47.77 11.67 47.29 11.67 46.66V43.33ZM25 44.44C24.39 44.44 23.89 44.94 23.89 45.55C23.89 46.16 24.39 46.66 25 46.66C25.61 46.66 26.11 46.16 26.11 45.55C26.11 44.94 25.61 44.44 25 44.44Z" fill="#7D8D96"/>
</svg>
