<svg width="66" height="66" viewBox="0 0 66 66" fill="none" xmlns="http://www.w3.org/2000/svg">
<g clip-path="url(#clip0_15_153)">
<path d="M33.6204 51.6252C40.92 51.4668 48.7476 48.4308 56.2584 42.8472C61.8948 38.6628 65.3664 34.5444 65.5116 34.3596C66.1716 33.5676 66.1716 32.4324 65.5116 31.6404C65.3664 31.4688 61.8948 27.3504 56.2584 23.1528C48.708 17.5428 40.854 14.5068 33.528 14.3748C33.3564 14.3748 33.1848 14.3616 33 14.3616C32.8284 14.3616 32.6568 14.3616 32.4984 14.3748C25.1724 14.5068 17.3052 17.5428 9.75479 23.1528C4.11839 27.3372 0.646792 31.4556 0.501592 31.6404C-0.158408 32.4324 -0.158408 33.5676 0.501592 34.3596C0.646792 34.5312 4.11839 38.6496 9.75479 42.8472C17.2788 48.444 25.1196 51.48 32.4192 51.6252C32.6172 51.6252 32.8152 51.6384 33.0132 51.6384C33.2112 51.6252 33.4092 51.6252 33.6204 51.6252ZM61.0236 33C59.598 34.4916 57.024 36.9996 53.6448 39.5076C52.2852 40.5108 50.7144 41.58 48.9588 42.5964C50.6484 39.798 51.6252 36.5112 51.6252 33.0132C51.6252 29.502 50.6484 26.2284 48.9588 23.4168C50.7012 24.4332 52.2852 25.4892 53.6448 26.5056C57.024 29.0004 59.598 31.5084 61.0236 33ZM47.4012 33C47.4012 40.9332 40.9464 47.4012 33 47.4012C25.0536 47.4012 18.5988 40.9332 18.5988 33C18.5988 25.0668 25.0536 18.5988 33 18.5988C40.9332 18.5988 47.4012 25.0668 47.4012 33ZM4.97639 33C6.40199 31.5084 8.97599 29.0004 12.3552 26.4924C13.7148 25.4892 15.2856 24.42 17.0412 23.4036C15.3516 26.202 14.3748 29.4888 14.3748 33C14.3748 36.5112 15.3516 39.7848 17.0412 42.5832C15.2988 41.5668 13.7148 40.5108 12.3552 39.4944C8.97599 36.9996 6.40199 34.4916 4.97639 33Z" fill="black"/>
<path d="M32.9999 42.5436C38.2667 42.5436 42.5435 38.2668 42.5435 33C42.5435 27.7332 38.2667 23.4564 32.9999 23.4564C27.7331 23.4564 23.4563 27.7332 23.4563 33C23.4563 38.2668 27.7331 42.5436 32.9999 42.5436ZM32.9999 27.6804C35.9303 27.6804 38.3195 30.0696 38.3195 33C38.3195 35.9304 35.9303 38.3196 32.9999 38.3196C30.0695 38.3196 27.6803 35.9304 27.6803 33C27.6803 30.0696 30.0695 27.6804 32.9999 27.6804Z" fill="black"/>
<path d="M4.224 4.2372H22.4664V0H2.112C0.9504 0 0 0.9504 0 2.112V22.4664H4.2372L4.224 4.2372Z" fill="black"/>
<path d="M4.2372 43.5336H0V63.888C0 65.0496 0.9504 66 2.112 66H22.4664V61.776H4.2372V43.5336Z" fill="black"/>
<path d="M61.7629 43.5336V61.776H43.5337V66H63.8881C65.0629 66 66.0001 65.0496 66.0001 63.888V43.5336H61.7629Z" fill="black"/>
<path d="M61.7629 22.4664H66.0001V2.112C66.0001 0.9504 65.0497 0 63.8881 0H43.5337V4.224H61.7761V22.4664H61.7629Z" fill="black"/>
</g>
<defs>
<clipPath id="clip0_15_153">
<rect width="66" height="66" fill="white"/>
</clipPath>
</defs>
</svg>
